<svg width="1200" height="420" viewBox="0 0 1200 420" fill="none" xmlns="http://www.w3.org/2000/svg" role="img" aria-labelledby="title desc">
  <title id="title">Confia System logo</title>
  <desc id="desc">Logo for Confia System using a blue shield, white check path, red signal dot, and wordmark.</desc>
  <rect width="1200" height="420" fill="#FFFFFF"/>
  <g transform="translate(80 58)">
    <path d="M151.5 0L281.4 49.6V148.8C281.4 231.1 229.6 293.1 151.5 316C73.4 293.1 21.6 231.1 21.6 148.8V49.6L151.5 0Z" fill="#0B4EA2"/>
    <path d="M151.5 24.8L257.8 65.4V148.8C257.8 216.4 215.4 267.6 151.5 288.6C87.6 267.6 45.2 216.4 45.2 148.8V65.4L151.5 24.8Z" fill="#1267C9"/>
    <path d="M93.2 162.1L132.9 201.8L215.5 119.2" stroke="#FFFFFF" stroke-width="24" stroke-linecap="round" stroke-linejoin="round"/>
    <path d="M215.5 119.2C238.3 96.4 275.3 96.4 298.1 119.2" stroke="#E1272D" stroke-width="20" stroke-linecap="round"/>
    <circle cx="316.8" cy="137.9" r="17.4" fill="#E1272D"/>
  </g>
  <g transform="translate(430 126)">
    <text x="0" y="100" fill="#0B1F3A" font-family="Inter, Montserrat, Arial, sans-serif" font-size="96" font-weight="800" letter-spacing="0">Confia</text>
    <text x="0" y="168" fill="#0B4EA2" font-family="Inter, Montserrat, Arial, sans-serif" font-size="58" font-weight="700" letter-spacing="8">SYSTEM</text>
    <rect x="0" y="196" width="310" height="10" rx="5" fill="#E1272D"/>
  </g>
</svg>
